<mxfile host="app.diagrams.net" modified="2024-03-31T10:16:13.499Z" agent="Mozilla/5.0 (Macintosh; Intel Mac OS X 10_15_7) AppleWebKit/537.36 (KHTML, like Gecko) Chrome/123.0.0.0 Safari/537.36" version="24.2.1" etag="XmYqtVpRPGiO0xl9BKLz" type="github">
  <diagram name="페이지-1" id="Xa-EZzTwTFRTfyErGKW2">
    <mxGraphModel>
      <root>
        <mxCell id="0" />
        <mxCell id="1" parent="0" />
      </root>
    </mxGraphModel>
  </diagram>
</mxfile>
